<svg
  width="24"
  height="24"
  viewBox="0 0 24 24"
  fill="none"
  xmlns="http://www.w3.org/2000/svg"
>
  <path
    d="M3.83327 15.2485L4.56432 15.0809L3.83327 15.2485ZM3.83327 9.35323L4.56432 9.52078L3.83327 9.35323ZM20.1667 9.35323L19.4357 9.52079L20.1667 9.35323ZM20.1667 15.2485L19.4357 15.0809L20.1667 15.2485ZM14.8801 20.6589L15.0552 21.3882L14.8801 20.6589ZM9.11986 20.6589L9.29493 19.9296L9.11986 20.6589ZM9.11985 3.94279L9.29493 4.67207L9.11985 3.94279ZM14.8801 3.94279L15.0552 3.21351L14.8801 3.94279ZM8.82008 3C8.82008 2.58579 8.48429 2.25 8.07008 2.25C7.65587 2.25 7.32008 2.58579 7.32008 3H8.82008ZM7.32008 5.51375C7.32008 5.92796 7.65587 6.26375 8.07008 6.26375C8.48429 6.26375 8.82008 5.92796 8.82008 5.51375H7.32008ZM16.6799 3C16.6799 2.58579 16.3441 2.25 15.9299 2.25C15.5157 2.25 15.1799 2.58579 15.1799 3H16.6799ZM15.1799 5.51375C15.1799 5.92796 15.5157 6.26375 15.9299 6.26375C16.3441 6.26375 16.6799 5.92796 16.6799 5.51375H15.1799ZM4.56432 15.0809C4.14523 13.2524 4.14523 11.3493 4.56432 9.52078L3.10223 9.18568C2.63259 11.2347 2.63259 13.367 3.10223 15.416L4.56432 15.0809ZM19.4357 9.52079C19.8548 11.3493 19.8548 13.2524 19.4357 15.0809L20.8978 15.416C21.3674 13.367 21.3674 11.2347 20.8978 9.18568L19.4357 9.52079ZM14.7051 19.9296C12.9258 20.3568 11.0742 20.3568 9.29493 19.9296L8.94478 21.3882C10.9542 21.8706 13.0458 21.8706 15.0552 21.3882L14.7051 19.9296ZM9.29493 4.67207C11.0742 4.24493 12.9258 4.24493 14.7051 4.67207L15.0552 3.21351C13.0458 2.73111 10.9542 2.73111 8.94478 3.21351L9.29493 4.67207ZM9.29493 19.9296C6.95607 19.3682 5.11769 17.4953 4.56432 15.0809L3.10223 15.416C3.77946 18.3708 6.03739 20.6902 8.94478 21.3882L9.29493 19.9296ZM15.0552 21.3882C17.9626 20.6902 20.2205 18.3708 20.8978 15.416L19.4357 15.0809C18.8823 17.4953 17.0439 19.3682 14.7051 19.9296L15.0552 21.3882ZM14.7051 4.67207C17.0439 5.23355 18.8823 7.10642 19.4357 9.52079L20.8978 9.18568C20.2205 6.23089 17.9626 3.91147 15.0552 3.21351L14.7051 4.67207ZM8.94478 3.21351C6.03739 3.91147 3.77946 6.23089 3.10223 9.18568L4.56432 9.52078C5.11769 7.10641 6.95607 5.23355 9.29493 4.67207L8.94478 3.21351ZM4.14016 9.02886H19.8598V7.52886H4.14016V9.02886ZM7.32008 3V5.51375H8.82008V3H7.32008ZM15.1799 3V5.51375H16.6799V3H15.1799Z"
    fill="#0F172A"
  />
  <path
    d="M13.4419 13.924C13.8469 13.636 14.0989 13.204 14.0989 12.619C14.0989 11.404 13.1629 10.774 12.0559 10.774C10.9489 10.774 10.0039 11.404 10.0039 12.619C10.0039 13.204 10.2649 13.636 10.6609 13.924C10.1119 14.257 9.79688 14.806 9.79688 15.445C9.79688 16.606 10.6519 17.326 12.0559 17.326C13.4509 17.326 14.3149 16.606 14.3149 15.445C14.3149 14.806 13.9999 14.257 13.4419 13.924ZM12.0559 11.944C12.5239 11.944 12.8659 12.214 12.8659 12.682C12.8659 13.141 12.5239 13.429 12.0559 13.429C11.5879 13.429 11.2459 13.141 11.2459 12.682C11.2459 12.214 11.5879 11.944 12.0559 11.944ZM12.0559 16.156C11.4619 16.156 11.0299 15.85 11.0299 15.283C11.0299 14.725 11.4619 14.419 12.0559 14.419C12.6499 14.419 13.0819 14.725 13.0819 15.283C13.0819 15.85 12.6499 16.156 12.0559 16.156Z"
    fill="#0F172A"
  />
</svg>
