<svg
  width="24"
  height="24"
  viewBox="0 0 24 24"
  fill="none"
  xmlns="http://www.w3.org/2000/svg"
>
  <path
    d="M3 11.9996C3 7.02883 7.02958 3 11.9996 3C16.9697 3 20.9992 7.02958 21 12.0004C21 15.9752 18.4246 19.3471 14.8503 20.5388C14.3943 20.6273 14.2323 20.346 14.2323 20.1068C14.2323 20.0086 14.2334 19.8364 14.235 19.6063C14.2381 19.1422 14.2428 18.4423 14.2428 17.6371C14.2428 16.7979 13.9548 16.2497 13.6323 15.9707C15.6362 15.748 17.7414 14.9867 17.7414 11.5301C17.7414 10.5477 17.3919 9.74447 16.8152 9.11449C16.9082 8.88725 17.2164 7.97229 16.7267 6.73259C16.7267 6.73259 15.9715 6.49035 14.254 7.65506C13.5348 7.45556 12.7646 7.35582 11.9996 7.35207C11.2347 7.35582 10.4652 7.45556 9.74747 7.65506C8.02779 6.4911 7.27182 6.73259 7.27182 6.73259C6.78284 7.97229 7.09108 8.88725 7.18483 9.11449C6.60885 9.74447 6.25711 10.5477 6.25711 11.5301C6.25711 14.9785 8.35853 15.7502 10.3572 15.9775C10.1 16.2024 9.86671 16.5992 9.78572 17.1812C9.27199 17.4114 7.96929 17.8089 7.16683 16.4334C7.16683 16.4334 6.69135 15.5695 5.78763 15.5057C5.78763 15.5057 4.90942 15.4937 5.72614 16.0525C5.72614 16.0525 6.31561 16.3292 6.72509 17.3694C6.72509 17.3694 7.25382 18.9758 9.75722 18.4314C9.75927 18.8427 9.76267 19.2411 9.76532 19.5527C9.76752 19.8109 9.76922 20.0096 9.76922 20.1068C9.76922 20.3445 9.60422 20.6228 9.15424 20.5395C5.57839 19.3493 3 15.976 3 11.9996Z"
    fill="white"
  />
  <path
    d="M6.25412 15.9497C6.31861 15.9805 6.38911 15.967 6.40861 15.922C6.43111 15.877 6.39361 15.8155 6.32836 15.787C6.26312 15.7562 6.19262 15.769 6.17312 15.8147C6.15212 15.859 6.18887 15.9205 6.25412 15.9497Z"
    fill="white"
  />
  <path
    d="M6.77309 16.3285C6.73034 16.3682 6.64635 16.3495 6.58935 16.2872C6.5301 16.2242 6.5196 16.1402 6.5631 16.1005C6.60735 16.0607 6.68834 16.0795 6.74759 16.1425C6.80684 16.2047 6.81809 16.288 6.77309 16.3285Z"
    fill="white"
  />
  <path
    d="M6.92684 16.7694C6.98234 16.8489 7.07234 16.8849 7.12783 16.8467C7.18408 16.8077 7.18408 16.7117 7.12933 16.6307C7.07309 16.5512 6.98384 16.5167 6.92834 16.5549C6.87134 16.5932 6.87134 16.6892 6.92684 16.7694Z"
    fill="white"
  />
  <path
    d="M7.61382 17.3477C7.56432 17.4024 7.45932 17.3874 7.38283 17.3132C7.30408 17.2404 7.28233 17.1377 7.33183 17.0829C7.38208 17.0282 7.48782 17.0439 7.56507 17.1174C7.64307 17.1902 7.66632 17.2937 7.61382 17.3477Z"
    fill="white"
  />
  <path
    d="M8.06005 17.7106C8.16204 17.7406 8.26329 17.7084 8.28504 17.6379C8.30604 17.5666 8.23929 17.4841 8.13805 17.4541C8.0353 17.4219 7.9333 17.4549 7.9123 17.5261C7.89131 17.5974 7.95805 17.6799 8.06005 17.7106Z"
    fill="white"
  />
  <path
    d="M9.0215 17.6919C9.02375 17.7661 8.9375 17.8276 8.83026 17.8291C8.72301 17.8314 8.63526 17.7714 8.63451 17.6986C8.63451 17.6236 8.71926 17.5629 8.82651 17.5606C8.93375 17.5584 9.0215 17.6184 9.0215 17.6919Z"
    fill="white"
  />
  <path
    d="M9.53897 17.7421C9.64546 17.7226 9.71971 17.6476 9.70696 17.5756C9.69346 17.5014 9.59747 17.4579 9.49172 17.4767C9.38748 17.4962 9.31173 17.5704 9.32448 17.6446C9.33798 17.7166 9.43472 17.7616 9.53897 17.7421Z"
    fill="white"
  />
</svg>
